# xmcd
#
# Track frame offsets:
#	150
#	24041
#	45939
#	72587
#	84219
#	104694
#	125749
#	146618
#	161856
#	177675
#	205273
#	216961
#	231604
#	254249
#
# Disc length: 4006 seconds
# Revision: 0
# Processed by: cddbd v1.5.2PL0 Copyright (c) Steve Scherf et al.
# Submitted via: dBpowerAMP V12.0
#
DISCID=da0fa40e
DTITLE=Various Artist - Planter's Club V: selected by DJ Samir
DYEAR=2011
DGENRE=Soul
TTITLE0=Bobby Womack - How Could You Break My Heart
TTITLE1=Stephanie Mills - Keep Away Girls - Album Version 
TTITLE2=Esther Phillips - Changin
TTITLE3=Al Hudson And The Soul Partners - Trying To Prove My Love - Album
TTITLE4=Father's Children - Hollywood Dreaming
TTITLE5=Marvin Gaye - Heavy Love Affair - Odyssey Studios Mix
TTITLE6=Smokey Robinson - Sweet Harmony
TTITLE7=Georgie Fame - Daylight
TTITLE8=Barbara Mason - Bed And Board
TTITLE9=Isaak Hayes - A Few More Kisses To Go - Album Version
TTITLE10=Etta James - I'd Rather Go Blind - Single Version
TTITLE11=George Benson - My Woman's Good To Me - Album Version
TTITLE12=Gatto Barbieri - I Want You 
TTITLE13=James Brown - Love 80's - Album Version
EXTD=
EXTT0=
EXTT1=
EXTT2=
EXTT3=
EXTT4=
EXTT5=
EXTT6=
EXTT7=
EXTT8=
EXTT9=
EXTT10=
EXTT11=
EXTT12=
EXTT13=
PLAYORDER=
